<svg xmlns="http://www.w3.org/2000/svg" xml:space="preserve" width="100" version="1.1" style="shape-rendering:geometricPrecision; text-rendering:geometricPrecision; image-rendering:optimizeQuality; fill-rule:evenodd; clip-rule:evenodd" xmlns:xlink="http://www.w3.org/1999/xlink" viewBox="8319.00 13927.00 13759.00 11946.00">
 <defs>
  <style type="text/css">

    .fil2 {fill:#1F1B20}
    .fil1 {fill:#1F1B20;fill-rule:nonzero}
    .fil0 {fill:#00A0E3;fill-rule:nonzero}

  </style>
 </defs>
 <g id="Warstwa_x0020_1">
  <metadata id="CorelCorpID_0Corel-Layer"></metadata>
  <path class="fil0" d="M15982 25853l970 0c740,0 1244,-467 1244,-1152 0,-684 -504,-1151 -1244,-1151l-970 0 0 2303zm329 -286l0 -1731 621 0c570,0 935,349 935,865 0,517 -365,866 -935,866l-621 0zm3852 -576c0,-536 -358,-898 -862,-898 -503,0 -875,371 -875,888 0,520 375,892 938,892 289,0 529,-99 687,-283l-174 -204c-128,141 -299,210 -503,210 -346,0 -593,-204 -632,-510l1415 0c3,-29 6,-69 6,-95zm-862 -632c306,0 527,207 560,500l-1119 0c33,-296 257,-500 559,-500zm2468 -250l-612 1398 -599 -1398 -329 0 763 1744 323 0 763 -1744 -309 0z"></path>
  <path class="fil1" d="M12927 25593l1029 -1277 0 -207 -1414 0 0 260 1010 0 -1030 1280 0 204 1461 0 0 -260 -1056 0zm-885 -2047c87,0 157,70 157,157 0,86 -70,156 -157,156 -86,0 -156,-70 -156,-156 0,-87 70,-157 156,-157zm2580 2047l1030 -1277 0 -207 -1415 0 0 260 1010 0 -1029 1280 0 204 1461 0 0 -260 -1057 0zm-3136 -2038l-630 1877 -635 -1882 -302 0 -649 1872 -613 -1870 -338 1 761 2300 352 0 628 -1839 629 1839 345 0 763 -2299 -311 1zm399 2298l316 0 0 -1744 -316 0 0 1744z"></path>
  <path class="fil0" d="M11986 17868l-437 509 1197 3432c107,-11 205,65 219,172 15,109 -61,211 -171,226 -110,15 -211,-62 -226,-172 -11,-83 31,-162 99,-201l-1180 -3384 -331 385c44,61 74,134 84,213 37,264 -148,507 -411,543 -264,36 -507,-149 -543,-412 -32,-240 117,-462 343,-528l-23 -2237c-160,-20 -292,-145 -315,-312 -27,-199 112,-382 311,-409 198,-27 381,112 409,311 20,145 -50,282 -166,356l623 1787 439 -511 79 232zm-580 352l-636 -1824c-22,8 -46,14 -70,17l-9 1 24 2221c102,-11 200,12 284,59l407 -474zm3204 -3076c3,27 4,53 2,79l1752 1224c135,-196 393,-280 623,-187 266,107 395,410 288,676 -108,266 -410,395 -677,288 -228,-93 -356,-329 -319,-563l-1756 -1224c-57,66 -138,113 -232,126 -65,9 -129,0 -186,-22l-1251 1456 -78 -233 1162 -1353c-34,-48 -57,-104 -66,-166 -28,-204 115,-391 318,-419 204,-28 392,114 420,318z"></path>
  <path class="fil2" d="M15120 13927c2357,0 4267,1911 4267,4268 0,2357 -1910,4268 -4267,4268 -497,0 -986,-85 -1449,-252l-258 -776c524,277 1108,422 1707,422 2022,0 3661,-1640 3661,-3662 0,-559 -125,-1089 -349,-1564l-1453 4342 -658 0 -1197 -3503 -243 709 -954 2794 -667 0 -5 -3 -1287 -3897c97,-274 242,-498 403,-733l1249 3812 1234 -3566 27 0 324 0 226 0 1209 3585 1408 -4175c-668,-888 -1731,-1463 -2928,-1463 -1379,0 -2635,772 -3262,1995l-49 96 -257 -771c789,-1201 2124,-1926 3568,-1926z"></path>
  <path class="fil0" d="M11986 17868l-437 509 1197 3432c107,-11 205,65 219,172 15,109 -61,211 -171,226 -110,15 -211,-62 -226,-172 -11,-83 31,-162 99,-201l-1180 -3384 -331 385c44,61 74,134 84,213 37,264 -148,507 -411,543 -264,36 -507,-149 -543,-412 -32,-240 117,-462 343,-528l-23 -2237c-160,-20 -292,-145 -315,-312 -27,-199 112,-382 311,-409 198,-27 381,112 409,311 20,145 -50,282 -166,356l623 1787 439 -511 79 232zm-580 352l-636 -1824c-22,8 -46,14 -70,17l-9 1 24 2221c102,-11 200,12 284,59l407 -474zm3204 -3076c3,27 4,53 2,79l1752 1224c135,-196 393,-280 623,-187 266,107 395,410 288,676 -108,266 -410,395 -677,288 -228,-93 -356,-329 -319,-563l-1756 -1224c-57,66 -138,113 -232,126 -65,9 -129,0 -186,-22l-1251 1456 -78 -233 1162 -1353c-34,-48 -57,-104 -66,-166 -28,-204 115,-391 318,-419 204,-28 392,114 420,318z"></path>
 </g>
</svg>